<?xml version="1.0" encoding="UTF-8" standalone="no"?>
<svg
   xmlns:dc="http://purl.org/dc/elements/1.1/"
   xmlns:cc="http://creativecommons.org/ns#"
   xmlns:rdf="http://www.w3.org/1999/02/22-rdf-syntax-ns#"
   xmlns:svg="http://www.w3.org/2000/svg"
   xmlns="http://www.w3.org/2000/svg"
   xmlns:sodipodi="http://sodipodi.sourceforge.net/DTD/sodipodi-0.dtd"
   xmlns:inkscape="http://www.inkscape.org/namespaces/inkscape"
   id="svg"
   width="338.30264"
   height="337.15448"
   viewBox="0 0 338.30264 337.15449"
   version="1.1"
   sodipodi:docname="linkedin.svg"
   inkscape:version="0.92.4 (5da689c313, 2019-01-14)">
  <metadata
     id="metadata9">
    <rdf:RDF>
      <cc:Work
         rdf:about="">
        <dc:format>image/svg+xml</dc:format>
        <dc:type
           rdf:resource="http://purl.org/dc/dcmitype/StillImage" />
      </cc:Work>
    </rdf:RDF>
  </metadata>
  <defs
     id="defs7" />
  <sodipodi:namedview
     pagecolor="#ffffff"
     bordercolor="#666666"
     borderopacity="1"
     objecttolerance="10"
     gridtolerance="10"
     guidetolerance="10"
     inkscape:pageopacity="0"
     inkscape:pageshadow="2"
     inkscape:window-width="1916"
     inkscape:window-height="1033"
     id="namedview5"
     showgrid="false"
     inkscape:zoom="1.9623523"
     inkscape:cx="106.74914"
     inkscape:cy="133.3099"
     inkscape:window-x="0"
     inkscape:window-y="45"
     inkscape:window-maximized="0"
     inkscape:current-layer="svgg" />
  <g
     id="svgg"
     transform="translate(0.01601415,-0.16851404)">
    <path
       id="path0"
       d="M 17.818,0.911 C 9.234,3.603 2.294,11.384 0.624,20.19 c -0.848,4.47 -0.856,292.746 -0.008,297.215 1.446,7.629 7.118,14.834 14.343,18.22 l 3.624,1.698 h 150.551 150.551 l 3.624,-1.698 c 7.224,-3.386 12.896,-10.591 14.343,-18.22 0.862,-4.542 0.838,-292.744 -0.024,-297.319 C 336.209,12.554 330.543,5.404 323.309,2.013 L 319.685,0.315 170.079,0.197 C 47.599,0.1 19.991,0.23 17.818,0.911 m 69.837,48.998 c 23.216,11.474 21.12,44.494 -3.353,52.817 C 64.645,109.411 44.127,92.157 47.299,71.611 50.214,52.737 70.885,41.621 87.655,49.909 m 150.226,73.597 c 28.043,3.127 42.868,18.048 47.819,48.129 1.687,10.248 2.15,29.747 1.738,73.247 l -0.401,42.362 h -24.434 -24.435 l -0.205,-48.346 c -0.226,-53.072 -0.197,-52.663 -4.268,-60.642 -9.308,-18.244 -41.145,-15.358 -48.479,4.396 -3.372,9.081 -3.363,8.93 -3.63,58.45 l -0.249,46.142 H 156.81 132.283 v -80 -80 h 23.623 23.622 v 10.709 c 0,11.385 0.414,12.745 2.704,8.87 10.199,-17.267 31.157,-26.048 55.649,-23.317 m -137.724,83.738 v 80 H 75.591 51.024 v -80 -80 h 24.567 24.566 v 80"
       inkscape:connector-curvature="0"
       style="fill:#ffffff;fill-rule:evenodd;stroke:none"
       sodipodi:nodetypes="cccccccccccccccccccccccccccccccccccsccccccccccc" />
  </g>
</svg>
